 <svg  version="1.0" xmlns="http://www.w3.org/2000/svg"  width="900.000000pt" height="900.000000pt" viewBox="0 0 900.000000 900.000000"  preserveAspectRatio="xMidYMid meet">  <g transform="translate(0.000000,900.000000) scale(0.100000,-0.100000)" fill="#ffffff" stroke="none"> <path d="M2105 8991 c8 -13 -27 -31 -60 -31 -34 0 -163 -39 -171 -51 -3 -5 -16 -9 -28 -9 -13 0 -29 -7 -36 -15 -7 -8 -19 -15 -27 -15 -8 0 -35 -13 -60 -30 -24 -16 -46 -30 -49 -30 -14 0 -127 -97 -195 -166 -79 -83 -169 -204 -169 -228 0 -8 -4 -17 -9 -20 -12 -8 -51 -88 -51 -107 0 -8 -7 -23 -15 -33 -8 -11 -15 -29 -15 -40 0 -11 -6 -38 -14 -61 -27 -77 -46 -310 -46 -562 0 -182 3 -244 13 -250 6 -4 170 -11 362 -14 193 -3 370 -11 395 -17 60 -14 118 -36 132 -50 7 -7 19 -12 28 -12 24 -1 136 -96 185 -158 75 -94 115 -191 136 -327 21 -135 -35 -320 -135 -446 -45 -58 -133 -131 -196 -164 -19 -10 -44 -22 -55 -28 -11 -6 -37 -14 -57 -19 -21 -4 -57 -12 -80 -18 -24 -5 -192 -9 -374 -10 -268 0 -334 -3 -343 -14 -8 -9 -10 -143 -9 -477 l3 -464 355 -6 c434 -8 462 -13 614 -113 74 -49 148 -125 181 -184 11 -21 25 -44 30 -52 36 -55 68 -186 68 -280 0 -94 -32 -225 -68 -280 -5 -8 -19 -31 -30 -52 -33 -59 -107 -135 -181 -184 -152 -100 -180 -105 -614 -113 l-355 -6 -3 -464 c-1 -334 1 -468 9 -477 9 -11 75 -14 343 -14 182 -1 350 -5 374 -10 23 -6 59 -14 80 -18 20 -5 46 -13 57 -19 11 -6 36 -18 55 -28 63 -33 151 -106 196 -164 100 -126 156 -312 135 -446 -22 -138 -58 -225 -136 -327 -47 -62 -161 -158 -188 -158 -7 0 -18 -5 -25 -12 -14 -14 -72 -36 -132 -50 -25 -6 -202 -14 -395 -17 -192 -3 -356 -10 -362 -14 -10 -6 -13 -68 -13 -250 0 -252 19 -485 46 -562 8 -23 14 -50 14 -61 0 -11 7 -29 15 -40 8 -10 15 -25 15 -33 0 -19 39 -99 51 -107 5 -3 9 -12 9 -20 0 -24 90 -145 169 -228 68 -69 181 -166 195 -166 3 0 25 -13 49 -30 25 -16 52 -30 60 -30 8 0 20 -7 27 -15 7 -8 23 -15 36 -15 12 0 25 -4 29 -9 6 -11 95 -39 170 -54 75 -16 5243 -15 5310 1 97 22 205 62 279 101 92 50 99 55 146 91 104 80 226 214 287 315 24 40 83 167 83 179 0 7 7 21 15 32 8 10 15 31 15 45 0 15 6 42 14 60 34 82 36 275 36 3649 0 3374 -2 3567 -36 3649 -8 18 -14 45 -14 60 0 14 -7 35 -15 45 -8 11 -15 25 -15 32 0 12 -59 139 -83 179 -76 126 -250 304 -355 363 -85 47 -139 75 -175 88 -97 35 -164 54 -189 54 -16 0 -37 9 -48 20 -20 20 -33 20 -2611 20 -1633 0 -2588 -4 -2584 -9z m3008 -2236 c20 -8 49 -15 64 -15 15 0 41 -7 57 -15 15 -8 34 -15 41 -15 21 0 203 -98 261 -140 97 -72 221 -207 281 -305 21 -34 80 -158 96 -200 55 -150 73 -337 49 -510 -13 -95 -29 -160 -48 -197 -8 -14 -14 -33 -14 -41 0 -44 -135 -257 -217 -342 -167 -172 -334 -265 -567 -316 -158 -34 -413 -21 -523 27 -17 8 -38 14 -46 14 -13 0 -177 80 -236 115 -33 20 -147 117 -179 153 -172 192 -253 366 -288 619 -14 102 -14 134 -4 205 6 45 14 106 17 133 3 28 12 59 19 70 8 11 14 30 14 43 0 31 114 260 140 282 3 3 26 32 52 65 60 79 152 161 253 226 55 35 188 99 206 99 8 0 24 7 35 15 10 8 35 15 54 15 19 1 51 8 70 15 52 20 365 20 413 0z m482 -2490 c22 -8 49 -15 60 -15 57 0 264 -90 379 -164 131 -85 301 -262 365 -381 12 -22 26 -47 31 -55 36 -62 90 -202 99 -260 4 -25 13 -56 20 -68 19 -35 29 -665 11 -687 -11 -13 -189 -15 -1654 -15 -1264 0 -1645 3 -1654 12 -29 29 -6 687 26 745 7 12 12 33 12 46 0 14 14 55 30 92 17 37 30 73 30 80 0 7 7 18 15 25 8 7 15 18 15 26 0 27 133 210 208 284 175 174 347 267 617 333 88 22 1330 23 1390 2z"/> <path d="M947 7014 c-64 -33 -127 -97 -157 -159 -21 -43 -25 -64 -25 -150 0 -86 3 -107 24 -150 30 -59 91 -122 146 -151 75 -39 130 -44 513 -44 380 1 433 5 510 45 47 24 109 91 139 150 23 45 26 61 26 155 0 103 -1 106 -37 165 -20 35 -56 76 -83 97 -96 72 -64 68 -560 68 l-448 -1 -48 -25z"/> <path d="M1010 4820 c-19 -4 -51 -15 -70 -25 -42 -21 -140 -114 -140 -133 0 -7 -8 -25 -17 -39 -14 -22 -18 -49 -18 -133 0 -84 4 -111 18 -133 9 -14 17 -32 17 -39 0 -20 99 -112 150 -139 l45 -24 450 0 450 0 45 25 c59 32 130 103 159 160 20 39 24 59 24 150 0 91 -4 111 -24 150 -29 57 -100 128 -159 160 l-45 25 -425 2 c-234 1 -441 -2 -460 -7z"/> <path d="M1015 2605 c-102 -26 -181 -89 -226 -180 -21 -43 -24 -64 -24 -150 0 -86 4 -107 25 -150 31 -63 94 -127 159 -159 l50 -26 446 0 c494 0 462 -4 558 68 27 21 63 62 83 97 36 59 37 62 37 165 0 94 -3 110 -26 155 -30 59 -92 126 -139 150 -77 40 -129 44 -518 44 -271 -1 -389 -4 -425 -14z"/> </g> </svg> 