 <svg  version="1.0" xmlns="http://www.w3.org/2000/svg"  width="900.000000pt" height="900.000000pt" viewBox="0 0 900.000000 900.000000"  preserveAspectRatio="xMidYMid meet">  <g transform="translate(0.000000,900.000000) scale(0.100000,-0.100000)" fill="#ffffff" stroke="none"> <path d="M933 8988 c1 -7 -17 -16 -43 -20 -25 -5 -67 -16 -95 -24 -406 -125 -702 -450 -784 -862 -15 -75 -15 -7109 0 -7184 44 -222 149 -418 309 -578 52 -52 172 -150 184 -150 3 0 24 -13 48 -28 74 -49 231 -108 346 -131 75 -15 7109 -15 7184 0 222 44 418 149 578 309 52 52 150 172 150 184 0 3 13 24 28 48 48 72 110 236 130 338 4 26 13 44 20 42 9 -1 12 797 12 3558 0 2761 -3 3559 -12 3558 -7 -2 -16 16 -20 42 -13 64 -35 133 -71 220 -138 331 -457 591 -807 658 -26 4 -44 13 -42 20 1 9 -797 12 -3558 12 -2761 0 -3559 -3 -3557 -12z m2880 -2354 c89 -21 141 -47 192 -99 84 -85 98 -131 170 -555 9 -52 23 -126 31 -165 8 -38 14 -80 14 -93 0 -13 6 -51 14 -85 8 -34 22 -107 31 -162 16 -101 34 -201 55 -310 6 -33 15 -87 20 -120 4 -33 12 -80 18 -105 6 -25 17 -90 27 -145 9 -55 23 -131 31 -170 8 -38 14 -80 14 -93 0 -13 6 -51 14 -85 8 -34 22 -107 31 -162 24 -145 44 -260 60 -345 8 -41 16 -88 18 -105 2 -16 9 -59 16 -95 24 -128 40 -217 56 -315 24 -143 38 -200 52 -200 25 0 557 735 597 825 3 8 15 29 26 45 11 17 24 39 30 50 5 11 25 47 44 80 50 87 205 402 242 490 6 17 18 44 25 60 40 93 84 223 110 325 26 100 59 318 59 388 -1 78 -32 206 -65 270 -53 101 -202 239 -430 400 -41 30 -75 58 -75 63 0 18 146 163 223 221 264 201 631 262 892 148 112 -49 237 -159 279 -246 10 -21 22 -47 27 -56 20 -40 49 -204 49 -280 0 -211 -82 -544 -201 -813 -94 -213 -188 -400 -285 -565 -27 -47 -53 -92 -57 -100 -4 -8 -15 -27 -25 -42 -16 -25 -90 -142 -115 -182 -64 -104 -326 -486 -462 -675 -67 -94 -522 -705 -547 -736 -25 -30 -124 -157 -211 -270 -161 -210 -178 -230 -198 -247 -17 -14 -40 -18 -108 -18 -47 0 -124 -5 -171 -10 -76 -9 -414 -31 -514 -34 l-39 -1 -18 75 c-10 41 -18 88 -19 103 0 15 -6 56 -14 90 -13 59 -26 128 -62 340 -8 50 -20 113 -25 138 -6 25 -14 73 -19 105 -5 32 -14 86 -20 119 -18 95 -37 202 -55 305 -9 52 -22 129 -30 170 -8 41 -21 118 -30 170 -9 52 -23 129 -30 170 -8 41 -21 114 -29 163 -9 48 -23 125 -31 172 -17 92 -37 206 -61 342 -17 100 -37 208 -55 303 -7 36 -15 88 -19 115 -4 28 -12 79 -19 115 -19 97 -38 205 -55 300 -17 99 -45 255 -52 288 l-4 22 -409 0 c-336 0 -411 2 -420 14 -8 9 -11 65 -9 176 3 182 -3 167 88 194 30 9 98 30 150 46 153 48 181 57 250 75 36 10 83 23 105 30 22 7 69 21 105 30 36 10 83 23 105 30 41 13 102 30 213 59 297 77 383 87 505 60z"/> </g> </svg> 